<svg width="48" height="51" viewBox="0 0 48 51" fill="none" xmlns="http://www.w3.org/2000/svg">
<path d="M39.2331 26.7435C39.4088 25.9077 39.4212 25.4615 39.6185 25.1193C39.8157 24.7772 40.1493 24.3474 40.4782 24.2974C40.8014 24.2626 41.311 24.5577 41.5087 24.8574C41.8986 25.4718 42.1314 26.1834 42.3701 26.7411C42.1974 27.1098 42.1326 27.3283 42.0038 27.4881C40.4476 29.6614 38.5021 30.9431 35.6298 30.0564C35.2336 30.6534 34.9544 31.2596 34.4981 31.6953C33.983 32.1957 33.3353 32.8197 32.704 32.895C28.7914 33.2654 25.382 35.1424 21.8151 36.4748C18.7097 37.6335 15.488 38.367 12.448 39.8104C10.0172 40.962 7.09812 40.7513 4.56211 39.8867C2.80789 39.2807 1.21963 37.9565 0.924069 35.7128C2.50758 34.0179 4.69855 33.6433 6.66158 32.9578C11.8301 31.1685 17.0211 29.457 22.2723 27.9067C25.8594 26.8421 29.546 26.1095 33.1875 25.2213C34.1159 24.9973 35.0405 24.7372 36.1239 24.4673C36.9692 25.0619 37.888 25.7361 39.2331 26.7435Z" fill="#D9292F"/>
<path d="M22.9392 3.89756C23.5283 4.11855 24.2251 4.32793 24.8878 4.62852C28.3916 6.22036 31.8877 7.87864 35.4144 9.40967C37.5345 10.3264 39.1829 11.8117 40.8501 13.3388C40.9783 13.4563 40.9418 13.7374 41.0221 14.1663C39.4082 15.0695 38.2315 16.5529 37.1074 18.1254C36.3834 19.137 35.2617 19.6005 34.0369 19.696C30.6916 19.9323 27.4885 20.8463 24.3679 21.9993C21.3722 23.0951 18.9111 22.536 16.7275 20.3643C15.3699 19.0227 15.2748 18.4494 15.9717 16.0405C20.3344 14.6078 24.8318 14.6996 29.3197 14.7705C30.1776 14.7802 31.0281 14.7178 31.8655 14.5984C32.1169 14.5713 32.4521 14.2289 32.4923 13.9839C32.5325 13.7388 32.3559 13.291 32.1407 13.1756C31.4858 12.8086 30.7531 12.6031 30.0924 12.2512C28.0162 11.1255 25.9607 9.99033 23.9224 8.80953C23.1581 8.36673 22.6229 7.68044 22.4434 6.78079C22.2754 5.85073 21.8637 4.88133 22.9392 3.89756ZM34.9044 14.4898C34.8235 14.3381 34.7426 14.1863 34.6465 14.0289C34.5348 14.1431 34.3928 14.2459 34.3113 14.3714C34.279 14.4113 34.3939 14.6105 34.4449 14.6123C34.6037 14.6025 34.7493 14.5357 34.9044 14.4898Z" fill="#D9292F"/>
<path d="M34.901 14.4902C34.7459 14.5361 34.6003 14.6028 34.4415 14.6126C34.4056 14.6165 34.2756 14.4117 34.3079 14.3717C34.3951 14.2311 34.5314 14.1434 34.6431 14.0293C34.724 14.181 34.8201 14.3384 34.901 14.4902Z" fill="white"/>
</svg>
