<svg width="36" height="38" viewBox="0 0 36 38" fill="none" xmlns="http://www.w3.org/2000/svg">
<path d="M2.1205 17.9099C2.66012 17.4365 3.12689 16.8276 3.74494 16.5218C6.71081 15.031 9.72529 13.6306 13.0169 12.9729C15.3101 12.5061 17.5549 11.6688 19.8742 11.4448C22.9487 11.1381 26.0122 10.4874 29.1303 10.8983C30.2379 11.0509 31.2828 11.3132 31.5887 12.5948C31.8004 13.4313 30.6931 14.4984 29.1777 14.7303C24.8036 15.3794 20.7105 16.8859 16.6723 18.6136C14.4181 19.5844 12.0863 20.4863 9.71083 20.951C7.98416 21.2857 6.08488 21.0079 4.31276 20.7078C3.04537 20.4843 2.5254 19.2895 2.1205 17.9099Z" fill="#D9292F"/>
<path d="M35.0501 30.0551C33.7883 31.6437 32.5947 33.1543 30.3446 33.3992C26.5839 33.8093 22.8936 33.4983 19.154 32.9982C15.733 32.5413 12.4152 31.7367 9.08694 30.9669C7.94389 30.7052 6.80744 30.2939 5.80478 29.711C5.09553 29.3076 4.52675 28.5829 4.07753 27.8868C3.42937 26.8958 4.03023 25.5546 5.20435 25.4318C6.14008 25.3507 7.11488 25.4935 8.05045 25.6925C10.0384 26.1033 11.9749 26.6878 13.9657 27.1145C16.9135 27.7695 19.8568 28.211 22.8469 28.5455C23.2638 28.588 23.7021 28.6597 24.1115 28.753C25.4592 29.0613 26.8087 29.5672 28.1809 29.6405C29.5213 29.7194 30.8862 29.2831 32.2547 29.2417C33.125 29.2544 34.1758 28.9883 35.0501 30.0551Z" fill="#D9292F"/>
<path d="M14.8748 3.18808C15.9279 3.77866 16.8344 4.27952 17.8155 4.83323C17.4919 5.13701 17.3113 5.41575 17.0579 5.55892C13.9368 7.19221 11.0417 9.18158 8.19517 11.2613C7.86039 11.5011 7.44334 11.7388 7.04044 11.7763C5.30922 11.8976 3.60712 11.7171 2.201 10.5125C1.1985 9.64932 1.15711 8.56875 2.19793 7.77702C3.64181 6.66761 5.12582 5.60067 6.93387 5.1693C8.8027 4.71083 10.6827 4.31625 12.5543 3.87377C13.2929 3.69525 13.9885 3.45835 14.8748 3.18808Z" fill="#D9292F"/>
</svg>
